# xmcd
# Track frame offsets:
# 150
# 11563
# 28046
# 48781
# 60853
# 75497
# 87968
# 104893
# 122303
# 133594
# 144583
# 159875
# 189149
# 199781
# 209696
# 221936
# 233693
# 246191
#
# Disc length: 3465 seconds
# Revision: 0
# Processed by: cddbd v1.5.1PL0 Copyright (c) Steve Scherf et al.
# Submitted via: VisiTrax 2.9.10.220 - For more info visit www.synapsa.com
#
DISCID=ee0d8712
DTITLE=Lavette, Bettye - Souvenirs - Atlantic Years
DYEAR=2000
DGENRE=Soul
TTITLE0=It Ain't Easy
TTITLE1=Fortune Teller
TTITLE2=Our Own Love Song
TTITLE3=Soul Tambourine
TTITLE4=Your Turn to Cry
TTITLE5=Ain't Nothing Gonna Change Me
TTITLE6=All the Black and White Children
TTITLE7=If I Can't Be Your Woman
TTITLE8=Outside Woman
TTITLE9=Stealer
TTITLE10=My Love Is Showing
TTITLE11=Souvenirs
TTITLE12=Heart of Gold
TTITLE13=You'll Wake up Wiser
TTITLE14=My Man
TTITLE15=Shut Your Mouth
TTITLE16=You'll Never Change
TTITLE17=Here I Am
EXTD=Masterizzato
EXTT0=Mai pubblicato prima
EXTT1=Mai pubblicato prima
EXTT2=Mai pubblicato prima
EXTT3=
EXTT4=
EXTT5=Mai pubblicato prima
EXTT6=Mai pubblicato prima
EXTT7=Mai pubblicato prima
EXTT8=Mai pubblicato prima
EXTT9=Mai pubblicato prima
EXTT10=Mai pubblicato prima
EXTT11=Mai pubblicato prima
EXTT12=
EXTT13=
EXTT14=
EXTT15=
EXTT16=
EXTT17=
PLAYORDER=
